<svg id="Capa_1" data-name="Capa 1" xmlns="http://www.w3.org/2000/svg" viewBox="0 0 127.06 17.34"><title>logo-sec</title><path d="M33.39,18.72H31.08v7.34c0,1.79-.78,2.7-2.34,2.7s-2.35-.91-2.35-2.7V18.72H24.1V26c0,3.08,1.6,5,4.64,5s4.65-1.91,4.65-5Zm8.49,9.64.81,2.41h2.44l-4.21-12H38l-4.2,12.05h2.43l.82-2.41Zm-.73-2.14H37.78l1.68-4.95Zm14.39,1a3.08,3.08,0,0,0-1.65-2.89A2.81,2.81,0,0,0,55.07,22c0-2-1.22-3.26-3.63-3.26H45.88V30.77h5.87C54.08,30.77,55.54,29.38,55.54,27.23Zm-4.1-6.43a1.27,1.27,0,0,1,1.4,1.32,1.33,1.33,0,0,1-1.4,1.34H48.17V20.8Zm1.75,6.34c0,1.18-.87,1.53-1.75,1.53H48.17V25.56h3.22C52.55,25.56,53.19,26.13,53.19,27.14Zm-37-7H22.9v-1.4H14.69V30.77h1.47V25.14h6.05V23.77H16.16Z" transform="translate(-14.69 -13.77)" style="fill:#2d2a26;fill-rule:evenodd"/><path d="M60.48,15.69a2.65,2.65,0,0,1,2-.64V13.79a3.7,3.7,0,0,0-2.94.88,4.84,4.84,0,0,0-1.31,3.76V19H56.54v1.34h1.67V30.84h1.42V20.36h2.79V19H59.63v-.59A3.87,3.87,0,0,1,60.48,15.69Zm70.6,9.16a4.63,4.63,0,1,0,9.24,0,4.63,4.63,0,1,0-9.24,0Zm-1.4,0a6,6,0,1,1,12.06,0,6,6,0,1,1-12.06,0Zm7.38-10.08h1.84l-2.51,2.85h-1.65Zm-10.12,4h1.39V30.84h-1.39Zm0-4h1.39v2.63h-1.39ZM124.07,26.7h1.46c-.87,2.67-2.77,4.41-5.7,4.41a6.14,6.14,0,0,1-6-6.26,6.19,6.19,0,0,1,6-6.35c2.94,0,4.81,1.75,5.71,4.4h-1.49a4.37,4.37,0,0,0-4.22-3,4.79,4.79,0,0,0-4.62,4.94,4.76,4.76,0,0,0,4.62,4.87A4.28,4.28,0,0,0,124.07,26.7Zm-17.63,2.95c2.45,0,4.66-1.1,4.66-3.26V24.32a9.57,9.57,0,0,1-3.83.83c-3,.29-3.83,1.05-3.83,2.38C103.44,29.13,105.28,29.65,106.44,29.65Zm4.68-.24a6.56,6.56,0,0,1-4.68,1.64c-2,0-4.46-1-4.46-3.5,0-2.9,2.74-3.5,5.14-3.72.91-.09,4-.16,4-1.64,0-1.83-1.7-2.32-3.41-2.32s-3.2.62-3.77,2.43H102.5c.67-2.66,2.48-3.8,5.19-3.8,3,0,4.81,1.3,4.81,3.69v6.5a5.69,5.69,0,0,0,.47,2.15h-1.45A3.91,3.91,0,0,1,111.12,29.41ZM96,18.5a4.51,4.51,0,0,1,4.66,4.65v7.69H99.29V23.15a3.25,3.25,0,0,0-6.5,0v7.69h-1.4V23.15a3.25,3.25,0,0,0-6.5,0v7.69h-1.4v-12h1.4v1a4.4,4.4,0,0,1,3.24-1.3,4.52,4.52,0,0,1,4,2.17A4.32,4.32,0,0,1,96,18.5Zm-18.5,1.25a5.28,5.28,0,0,1,4.39-1.18V19.9a4.24,4.24,0,0,0-3.49.88,3.79,3.79,0,0,0-1.18,2.84v7.22H75.83v-12h1.41v1.26A2.68,2.68,0,0,1,77.52,19.75Zm-13.76,5.1a4.63,4.63,0,1,0,9.24,0,4.63,4.63,0,1,0-9.24,0Zm-1.4,0a6,6,0,1,1,12.06,0,6,6,0,1,1-12.06,0Z" transform="translate(-14.69 -13.77)" style="fill:#3dae2b;fill-rule:evenodd"/></svg>