<svg id="Capa_1" data-name="Capa 1" xmlns="http://www.w3.org/2000/svg" viewBox="0 0 189.16 64.76"><title>white-logo</title><path d="M682,304.26l12-2.8,2.4,2.26L695.09,308Zm10.4-32.8s1.87,17.6,1.47,19.33c0,0-.4,4.27,6,19.6s2.27,4.8,7.6,16.93l2.4,3.47,2.4-19.2c.4-6.93.27-18.27.27-18.27.4-.26,1.86-19.06,1.6-20.53a58,58,0,0,1-.14-6.53c-19.6-.8-24,.8-24,.8-14.4-.94-30.53-.94-30.53-.94a39.3,39.3,0,0,0-1.33,9.87,47.42,47.42,0,0,1,.13,8.13c-.27,4.14.67,16.14.67,16.14L658,300c.67,11.33-.26,28.67-.26,28.67h13.06c.67-.81,13.6-32.27,13.6-32.27C689.09,286.79,692.42,271.46,692.42,271.46Z" transform="translate(-591.61 -266.03)" style="fill:#fff;fill-rule:evenodd"/><path d="M742.26,278.78h11.22c5.89,0,8.51,1.87,8.51,6.17,0,3.83-2.9,6-8.14,5.89H742.26Zm0,22.8H754.7c6.63,0,9.62,2.25,9.62,7.2s-2.89,7.1-9.25,7.1H742.26Zm-96.34-35.14H629.65v38.14c0,8.69-3.17,12.33-10.56,12.33-7.85,0-11.21-3.74-11.21-12.43v-38H591.61v36.92c0,7.57.75,11.68,2.9,15.61,4.11,7.57,12.15,11.22,24.3,11.22,9.16,0,15.52-1.87,20.19-6.17a22.16,22.16,0,0,0,5.89-10,39.14,39.14,0,0,0,1-10.57Zm80.08,0v62.25h31.87c7.57,0,12.53-1.31,16.45-4.58,4.3-3.36,6.45-8.13,6.45-14,0-7.48-3.36-12.53-10.09-15l-1-.37q8.13-4.21,8.13-12.62a14.46,14.46,0,0,0-8-13.27c-3.17-1.59-7.38-2.34-13.83-2.34Z" transform="translate(-591.61 -266.03)" style="fill:#fff;fill-rule:evenodd"/></svg>