<svg id="Capa_1" data-name="Capa 1" xmlns="http://www.w3.org/2000/svg" viewBox="0 0 101.89 32"><title>accessible</title><polygon points="17.55 8.01 7.97 8.01 7.97 11.2 7.97 15.61 7.97 31.95 11.16 31.95 11.16 22.37 14.36 22.37 14.36 31.95 17.55 31.95 17.55 17.87 17.55 11.2 17.55 8.01" style="fill:#67666e"/><circle cx="12.76" cy="3.22" r="3.19" style="fill:#67666e"/><rect x="0.08" y="10.45" width="9.58" height="3.19" transform="translate(-5.85 4.7) rotate(-33.57)" style="fill:#67666e"/><rect x="18.99" y="7.2" width="3.19" height="9.58" transform="translate(-0.78 22.51) rotate(-56.43)" style="fill:#67666e"/><polygon points="43 7.98 33.43 7.98 33.43 11.17 33.43 15.59 33.43 31.92 36.62 31.92 36.62 22.35 39.81 22.35 39.81 31.92 43 31.92 43 17.84 43 11.17 43 7.98" style="fill:#67666e"/><circle cx="38.22" cy="3.19" r="3.19" style="fill:#67666e"/><rect x="25.54" y="10.42" width="9.58" height="3.19" transform="translate(-1.59 18.78) rotate(-33.57)" style="fill:#67666e"/><rect x="44.44" y="7.17" width="3.19" height="9.58" transform="translate(10.62 43.7) rotate(-56.43)" style="fill:#67666e"/><polygon points="68.52 8.06 58.95 8.06 58.95 11.25 58.95 15.66 58.95 32 62.14 32 62.14 22.42 65.33 22.42 65.33 32 68.52 32 68.52 17.92 68.52 11.25 68.52 8.06" style="fill:#67666e"/><circle cx="63.73" cy="3.27" r="3.19" style="fill:#67666e"/><rect x="51.06" y="10.5" width="9.58" height="3.19" transform="translate(2.63 32.9) rotate(-33.57)" style="fill:#67666e"/><rect x="69.96" y="7.24" width="3.19" height="9.58" transform="translate(21.96 65) rotate(-56.43)" style="fill:#67666e"/><polygon points="93.98 8.03 84.4 8.03 84.4 11.22 84.4 15.63 84.4 31.97 87.59 31.97 87.59 22.39 90.79 22.39 90.79 31.97 93.98 31.97 93.98 17.89 93.98 11.22 93.98 8.03" style="fill:#67666e"/><circle cx="89.19" cy="3.24" r="3.19" style="fill:#67666e"/><rect x="76.51" y="10.47" width="9.58" height="3.19" transform="translate(6.89 46.97) rotate(-33.57)" style="fill:#67666e"/><rect x="95.42" y="7.22" width="3.19" height="9.58" transform="translate(33.36 86.2) rotate(-56.43)" style="fill:#67666e"/></svg>