<?xml version="1.0" encoding="utf-8"?>
<!-- Generator: Adobe Illustrator 22.1.0, SVG Export Plug-In . SVG Version: 6.00 Build 0)  -->
<svg version="1.1" id="Capa_1" xmlns="http://www.w3.org/2000/svg" xmlns:xlink="http://www.w3.org/1999/xlink" x="0px" y="0px"
	 viewBox="0 0 1921 1080" style="enable-background:new 0 0 1921 1080;" xml:space="preserve">
<style type="text/css">
	.st0{fill:url(#SVGID_1_);}
	.st1{fill:none;}
	.st2{opacity:0.56;}
	.st3{opacity:8.000000e-02;fill:#FFFFFF;enable-background:new    ;}
</style>
<title>green-back</title>
<linearGradient id="SVGID_1_" gradientUnits="userSpaceOnUse" x1="-2.4914" y1="540" x2="1927.4972" y2="540" gradientTransform="matrix(1 0 0 -1 0 1080)">
	<stop  offset="0" style="stop-color:#006837"/>
	<stop  offset="0.54" style="stop-color:#008A37"/>
	<stop  offset="1" style="stop-color:#006837"/>
</linearGradient>
<rect x="-2.5" y="0.5" class="st0" width="1930" height="1079"/>
<path class="st1" d="M1927,1v1078H-2V1H1927 M1928,0H-3v1080h1931V0z"/>
<g id="_Grupo_" class="st2">
	<path id="_Trazado_" class="st3" d="M-1.3,94c0,0,115.2,235.7,425.1,261.7c156.6,13.1,311.7-28.4,406.2-107.4S1082.1,72,1326.7,72
		c255.2,0,272.2,165.4,407,170.8c183.6,7.4,190-41.1,190-41.1v110.1c0,0-31.7-51.6-143.2-18.7c-175.3,51.8-145.3,135.4-280.8,105.4
		c-278-61.6-203-58-628.7,38.7C582.7,502.9,316.5,409,207,406.2S-1.6,516-1.6,516L-1.3,94z"/>
	<path id="_Trazado_2" class="st3" d="M-3,500.2V225.9c0,0,63.9,72.1,149.3,57.8s183.6-145,470.1-145.2
		c194.4,0,275.5,76.2,417.8,144.3s187.6,82.7,343.4,82.7s218.2-107.8,298.7-115.4c80.5-7.6,250.3,103.2,250.3,103.2v127.6
		c0,0-138.6-131-387.3-60.1s-473.3,54-639.1-19.6S643.3,386,444.5,380.6s-223.6-94.1-299.2-61.2C84.7,345.7-3,500.2-3,500.2z"/>
	<path id="_Trazado_3" class="st3" d="M1928,409V245.4c0,0-63.9,14.4-149.3,0s-183.6-144.9-470.1-145
		c-194.4,0-275.5,76.2-417.8,144.3S703.1,355.5,547.4,355.5S330.9,244.7,250.5,237S-1.6,315.2-1.6,315.2v90.3
		c0,0,137-162.7,385.8-91.8s474.7,122.9,640.5,49.3s244.3,11.1,443.1,5.6s220.1-145.8,325.9-82.1C1851.7,321.4,1928,409,1928,409z"
		/>
</g>
<g id="_Grupo_2" class="st2">
	<path id="_Trazado_4" class="st3" d="M1925.3,948c0,0-115.2-235.7-425.1-261.7c-156.6-13.1-311.7,28.3-406.2,107.4
		S841.9,970,597.3,970c-255.2,0-272.2-165.4-407-170.8c-183.6-7.4-190,41.1-190,41.1V730.1c0,0,31.7,51.6,143.2,18.7
		C318.7,697,288.7,613.4,424.1,643.4c278,61.6,203,58,628.7-38.7c288.5-65.6,554.7,28.3,664.2,31.1
		c109.5,2.7,208.6-109.8,208.6-109.8L1925.3,948z"/>
	<path id="_Trazado_5" class="st3" d="M1927,541.8v274.2c0,0-63.9-72.2-149.3-57.8s-183.6,145-470.1,145.2
		c-194.4,0-275.5-76.2-417.8-144.3s-187.6-82.7-343.4-82.7S328.1,784.3,247.7,791.9S-2.6,688.7-2.6,688.7V561.1
		c0,0,138.6,131,387.3,60.2s473.3-54,639.1,19.6s256.9,15.1,455.7,20.5s223.6,94.1,299.2,61.2C1839.3,696.3,1927,541.8,1927,541.8z"
		/>
	<path id="_Trazado_6" class="st3" d="M-4,633v163.6c0,0,63.9-14.4,149.3,0s183.6,144.8,470.1,145c194.4,0,275.5-76.2,417.8-144.3
		s187.6-110.9,343.4-110.9s216.5,110.9,296.8,118.5s252.1-78.2,252.1-78.2v-90.3c0,0-137,162.7-385.8,91.8S1065.1,605.4,899.3,679
		s-244.3-11.1-443.1-5.6s-220.1,145.8-325.9,82.2C72.3,720.7-4,633-4,633z"/>
</g>
</svg>
