<?xml version="1.0" encoding="utf-8"?>
<!-- Generator: Adobe Illustrator 22.1.0, SVG Export Plug-In . SVG Version: 6.00 Build 0)  -->
<svg version="1.1" id="Layer_1" xmlns="http://www.w3.org/2000/svg" xmlns:xlink="http://www.w3.org/1999/xlink" x="0px" y="0px"
	 viewBox="0 0 491.5 491.5" style="enable-background:new 0 0 491.5 491.5;" xml:space="preserve">
<style type="text/css">
	.st0{fill:#3A556A;}
	.st1{fill:#EBF0F3;}
	.st2{fill:#E1E6E9;}
	.st3{fill:#64798A;}
	.st4{fill:#FFFFFF;}
</style>
<path class="st0" d="M430.2,234.6H61.4c-4,0-7.3,3.3-7.3,7.3v242.3c0,4,3.3,7.3,7.3,7.3h368.8c4,0,7.3-3.3,7.3-7.3V241.9
	C437.5,237.9,434.2,234.6,430.2,234.6z"/>
<path class="st1" d="M245.8,0c-82.7,0-150,67.3-150,150v201.2h300V150C395.7,67.3,328.5,0,245.8,0z M369.9,325.3H121.6V150
	c0-68.4,55.7-124.1,124.1-124.1S369.9,81.5,369.9,150V325.3z"/>
<path class="st2" d="M245.8,25.9c-68.4,0-124.1,55.7-124.1,124.1v175.3h248.2V150C369.9,81.5,314.2,25.9,245.8,25.9z M359.8,315.2
	H131.7V150c0-62.9,51.2-114.1,114.1-114.1S359.8,87.1,359.8,150V315.2z"/>
<path class="st3" d="M430.2,217.3H61.4c-4,0-7.3,3.3-7.3,7.3v242.3c0,4,3.3,7.3,7.3,7.3h368.8c4,0,7.3-3.3,7.3-7.3V224.7
	C437.5,220.6,434.2,217.3,430.2,217.3z"/>
<path class="st0" d="M274.5,321.5c0-15.9-12.9-28.8-28.8-28.8S217,305.6,217,321.5c0,9.7,4.9,18.3,12.2,23.5L217,398.9h57.5
	L262.3,345C269.7,339.8,274.5,331.2,274.5,321.5z"/>
<rect x="307" y="145.3" class="st4" width="130.5" height="72.1"/>
</svg>
